<svg xmlns="http://www.w3.org/2000/svg" version="1.1" xmlns:xlink="http://www.w3.org/1999/xlink" width="512" height="512" x="0" y="0" viewBox="0 0 64 64" style="enable-background:new 0 0 512 512" xml:space="preserve" class=""><g><path d="M47.624 62h-46a1 1 0 0 1-1-1V1a1 1 0 0 1 1-1h46a1 1 0 0 1 1 1v9.58a1 1 0 0 1-2 0V2h-44v58h44V35.892a1 1 0 0 1 2 0V61a1 1 0 0 1-1 1z" fill="#000000" opacity="1" data-original="#000000" class=""></path><path d="M1.624 64a1 1 0 0 1-1-1v-2a1 1 0 0 1 2 0v2a1 1 0 0 1-1 1zM43.624 58h-38a1 1 0 0 1-1-1V5a1 1 0 0 1 1-1h38a1 1 0 0 1 1 1v5.13a1 1 0 0 1-2 0V6h-36v50h36V36.188a1 1 0 0 1 2 0V57a1 1 0 0 1-1 1z" fill="#000000" opacity="1" data-original="#000000" class=""></path><path d="M6.624 58h-5a1 1 0 0 1 0-2h5a1 1 0 1 1 0 2zM47.624 64a1 1 0 0 1-1-1v-2a1 1 0 0 1 2 0v2a1 1 0 0 1-1 1zM47.624 58h-5a1 1 0 0 1 0-2h5a1 1 0 0 1 0 2zM24.624 58a1 1 0 0 1-1-1V5a1 1 0 0 1 2 0v52a1 1 0 0 1-1 1z" fill="#000000" opacity="1" data-original="#000000" class=""></path><path d="M43.624 50h-19a1 1 0 0 1 0-2h19a1 1 0 0 1 0 2zM35.124 54h-2a1 1 0 0 1 0-2h2a1 1 0 0 1 0 2zM20.624 33.5a1 1 0 0 1-1-1v-3a1 1 0 0 1 2 0v3a1 1 0 0 1-1 1z" fill="#000000" opacity="1" data-original="#000000" class=""></path><path d="M24.624 50h-19a1 1 0 0 1 0-2h19a1 1 0 0 1 0 2zM16.124 54h-2a1 1 0 0 1 0-2h2a1 1 0 0 1 0 2zM44.687 37.234a14.183 14.183 0 0 1-12.271-7.09c-4.046-7.01-.63-15.965 5.129-19.29 6.983-4.03 15.934-.578 19.27 5.204a14.13 14.13 0 0 1-5.128 19.29 13.962 13.962 0 0 1-7 1.886zm-.568-26.102a11.073 11.073 0 0 0-5.574 1.454c-4.94 2.852-7.871 10.54-4.397 16.558a12.113 12.113 0 0 0 16.539 4.471 12.127 12.127 0 0 0 4.396-16.557c-1.975-3.421-6.438-5.926-10.964-5.926z" fill="#000000" opacity="1" data-original="#000000" class=""></path><path d="M50.692 41.09a1.797 1.797 0 0 1-1.557-.902l-2.144-3.711a1 1 0 0 1 1.733-1l2.042 3.537 4.557-2.631-2.116-3.664a1 1 0 1 1 1.732-1l2.217 3.84a1.8 1.8 0 0 1-.654 2.453l-4.914 2.837a1.784 1.784 0 0 1-.896.24z" fill="#000000" opacity="1" data-original="#000000" class=""></path><path d="M60.024 53.136a3.358 3.358 0 0 1-2.91-1.677l-6.478-11.22a1 1 0 0 1 1.732-1l6.478 11.22a1.356 1.356 0 0 0 2.483-.328 1.343 1.343 0 0 0-.136-1.028l-6.477-11.22a1 1 0 0 1 1.732-1l6.478 11.22a3.355 3.355 0 0 1-2.902 5.033zM52.6 19.522a1 1 0 0 1-.868-.5c-1.904-3.298-7.22-5.342-11.22-3.034a1 1 0 1 1-1-1.732c5.055-2.92 11.537-.418 13.953 3.766a1 1 0 0 1-.865 1.5zM28.624 33.5a1 1 0 0 1-1-1v-3a1 1 0 0 1 2 0v3a1 1 0 0 1-1 1z" fill="#000000" opacity="1" data-original="#000000" class=""></path></g></svg>